# xmcd
#
# Track frame offsets:
#	150
#	15703
#	28185
#	42432
#	58654
#	68283
#	86420
#	97446
#	106481
#	122506
#	136529
#	145869
#	161878
#	175648
#	188760
#	202042
#	215118
#	229232
#	239899
#	253606
#
# Disc length: 3571 seconds
#
# Revision: 0
# Processed by: cddbd v1.5.2PL0 Copyright (c) Steve Scherf et al.
# Submitted via: audiograbber 1.83.01
#
DISCID=250df114
DTITLE=Elvis Presley - Good 'n' Country
DYEAR=1900
DGENRE=Country
TTITLE0=I Was Born About 10.000 Years Ago (Unedited Master)
TTITLE1=It Ain't No Big Thing (Take 6)
TTITLE2=Faded Love (Brass And Strings Overdub Master)
TTITLE3=Make The World Go Away (Take 3)
TTITLE4=Snowbird (Harmony Vocal Overdub)
TTITLE5=Pieces Of My Life (Alternate Mix)
TTITLE6=The Fool (Undubbed Master)
TTITLE7=Welcome To My World (Recorded Live, Differend Mix)
TTITLE8=Until It's Time For You To Go (Take 6)
TTITLE9=Early Morning Rain (Take 11)
TTITLE10=Little Cabin On The Hill (Unedited Master)
TTITLE11=Green Green Grass Of Home (Take 3)
TTITLE12=There's A Honky Tonk Angel (Take 1)
TTITLE13=Susan When She Tried (Take 2)
TTITLE14=If I'm A Fool For Loving You (Take 3)
TTITLE15=If You Love Me Let Me Know (Rough Undubbed Live Master)
TTITLE16=Talk About The Good Times (Take 3)
TTITLE17=I'll Be There (Take 6, Improved Sound)
TTITLE18=It's A Matter Of Time (Brass And Strings Overdub Master)
TTITLE19=For The Good Times (Undubbed Alternate Master)
EXTD=
EXTT0=
EXTT1=
EXTT2=
EXTT3=
EXTT4=
EXTT5=
EXTT6=
EXTT7=
EXTT8=
EXTT9=
EXTT10=
EXTT11=
EXTT12=
EXTT13=
EXTT14=
EXTT15=
EXTT16=
EXTT17=
EXTT18=
EXTT19=
PLAYORDER=
